<?xml version="1.0" standalone="no"?>
<!DOCTYPE svg PUBLIC "-//W3C//DTD SVG 20010904//EN"
 "http://www.w3.org/TR/2001/REC-SVG-20010904/DTD/svg10.dtd">
<svg version="1.0" xmlns="http://www.w3.org/2000/svg"
 width="500.000000pt" height="500.000000pt" viewBox="0 0 500.000000 500.000000"
 preserveAspectRatio="xMidYMid meet">
<metadata>
Created by potrace 1.14, written by Peter Selinger 2001-2017
</metadata>
<g transform="translate(0.000000,500.000000) scale(0.100000,-0.100000)"
fill="#000000" stroke="none">
<path d="M2300 4084 c-184 -46 -344 -85 -355 -87 -11 -1 -26 -6 -32 -10 -7 -5
-13 -6 -13 -4 0 5 -64 -10 -165 -37 -33 -9 -73 -19 -90 -22 -16 -3 -59 -13
-95 -24 -36 -10 -76 -21 -90 -23 -14 -3 -54 -13 -90 -22 -36 -9 -74 -19 -85
-21 -11 -2 -50 -12 -88 -23 -37 -11 -68 -20 -70 -19 -14 2 -102 -29 -137 -50
-50 -28 -114 -92 -135 -133 -37 -71 -41 -101 -40 -354 1 -141 -3 -255 -8 -262
-5 -7 -16 -13 -24 -13 -27 0 -241 -107 -325 -163 -46 -30 -103 -73 -128 -95
-25 -23 -49 -45 -55 -50 -27 -24 -84 -92 -115 -137 -19 -27 -38 -52 -43 -53
-4 -2 -4 -8 -1 -13 3 -6 -2 -21 -10 -34 -9 -14 -14 -25 -10 -25 4 0 1 -6 -5
-13 -9 -11 -22 -77 -35 -184 -2 -13 0 -23 4 -23 4 0 10 -24 13 -52 6 -57 53
-176 80 -206 9 -10 17 -23 17 -29 0 -5 22 -34 50 -64 27 -30 49 -57 50 -60 0
-3 30 -30 67 -60 87 -69 105 -87 123 -124 27 -55 153 -185 225 -235 28 -19 51
-37 53 -42 2 -4 8 -8 14 -8 5 0 29 -13 53 -30 41 -28 213 -115 300 -152 119
-50 407 -133 543 -157 31 -6 71 -13 87 -16 17 -3 48 -8 70 -10 22 -3 83 -12
135 -20 52 -8 154 -17 225 -21 168 -9 582 -9 708 0 98 7 308 32 337 41 8 2 35
7 60 10 25 3 63 11 85 17 50 13 74 18 100 22 75 12 382 112 495 162 131 57
251 124 341 189 95 68 224 193 234 226 4 11 10 19 15 19 4 0 10 10 14 23 3 12
29 40 58 62 109 83 212 198 255 285 16 30 31 57 34 60 5 4 11 25 35 125 10 40
11 145 2 145 -5 0 -8 14 -8 30 0 17 -6 46 -14 65 -8 18 -12 36 -8 39 3 3 0 6
-6 6 -7 0 -11 3 -10 8 7 20 -94 162 -165 234 -78 78 -230 187 -319 228 -23 12
-50 25 -58 30 -8 5 -45 23 -82 40 l-68 30 0 238 c-1 130 -2 262 -3 292 -5 113
-95 239 -210 294 -30 14 -92 36 -138 50 -46 13 -104 31 -129 39 -25 8 -85 27
-135 42 -49 15 -117 35 -150 45 -33 10 -100 30 -150 45 -49 15 -133 39 -185
55 -212 65 -240 70 -355 69 -103 -1 -130 -6 -445 -85z"/>
</g>
</svg>
